<mxfile host="app.diagrams.net" modified="2023-12-13T09:31:39.097Z" agent="Mozilla/5.0 (Windows NT 10.0; Win64; x64) AppleWebKit/537.36 (KHTML, like Gecko) Chrome/120.0.0.0 Safari/537.36" etag="f2sWC3F2Zc27AitY6pU1" version="22.1.8" type="github">
  <diagram name="Page-1" id="5d7acffa-a066-3a61-03fe-96351882024d">
    <mxGraphModel dx="2068" dy="864" grid="1" gridSize="10" guides="1" tooltips="1" connect="1" arrows="1" fold="1" page="1" pageScale="1" pageWidth="1100" pageHeight="850" background="#ffffff" math="0" shadow="0">
      <root>
        <mxCell id="0" />
        <mxCell id="1" parent="0" />
        <mxCell id="2-qn9SCY0CSl4VwghT2g-1" value="&lt;font style=&quot;font-size: 14px;&quot;&gt;&lt;b style=&quot;&quot;&gt;1. Website&lt;/b&gt;&lt;/font&gt;" style="swimlane;childLayout=stackLayout;horizontal=1;startSize=30;horizontalStack=0;rounded=1;fontSize=14;fontStyle=0;strokeWidth=2;resizeParent=0;resizeLast=1;shadow=0;dashed=0;align=center;arcSize=4;whiteSpace=wrap;html=1;" parent="1" vertex="1">
          <mxGeometry x="421" y="240" width="133.33" height="100" as="geometry" />
        </mxCell>
        <mxCell id="2-qn9SCY0CSl4VwghT2g-2" value="Professional / Recruiter /&lt;br&gt;&amp;nbsp;/ Employer&lt;br&gt;Directory &amp;amp; Public &lt;br&gt;Dashboard" style="align=center;strokeColor=none;fillColor=none;spacingLeft=4;fontSize=12;verticalAlign=top;resizable=0;rotatable=0;part=1;html=1;" parent="2-qn9SCY0CSl4VwghT2g-1" vertex="1">
          <mxGeometry y="30" width="133.33" height="70" as="geometry" />
        </mxCell>
        <mxCell id="2-qn9SCY0CSl4VwghT2g-5" value="&lt;font style=&quot;font-size: 14px;&quot;&gt;User&lt;br&gt;&lt;/font&gt;" style="rounded=0;whiteSpace=wrap;html=1;" parent="1" vertex="1">
          <mxGeometry x="97" y="250" width="120" height="70" as="geometry" />
        </mxCell>
        <mxCell id="2-qn9SCY0CSl4VwghT2g-9" value="" style="endArrow=classic;html=1;rounded=0;edgeStyle=orthogonalEdgeStyle;entryX=0.005;entryY=0.297;entryDx=0;entryDy=0;entryPerimeter=0;" parent="1" target="2-qn9SCY0CSl4VwghT2g-1" edge="1">
          <mxGeometry relative="1" as="geometry">
            <mxPoint x="216" y="270" as="sourcePoint" />
            <mxPoint x="446" y="271" as="targetPoint" />
          </mxGeometry>
        </mxCell>
        <mxCell id="2-qn9SCY0CSl4VwghT2g-10" value="search" style="edgeLabel;resizable=0;html=1;align=center;verticalAlign=middle;" parent="2-qn9SCY0CSl4VwghT2g-9" connectable="0" vertex="1">
          <mxGeometry relative="1" as="geometry" />
        </mxCell>
        <mxCell id="2-qn9SCY0CSl4VwghT2g-20" value="User Data" style="shape=cylinder3;whiteSpace=wrap;html=1;boundedLbl=1;backgroundOutline=1;size=15;" parent="1" vertex="1">
          <mxGeometry x="430" y="380" width="90" height="60" as="geometry" />
        </mxCell>
        <mxCell id="2-qn9SCY0CSl4VwghT2g-29" value="&lt;font style=&quot;font-size: 14px;&quot;&gt;&lt;b style=&quot;&quot;&gt;2. Login Service&lt;/b&gt;&lt;/font&gt;" style="swimlane;childLayout=stackLayout;horizontal=1;startSize=30;horizontalStack=0;rounded=1;fontSize=14;fontStyle=0;strokeWidth=2;resizeParent=0;resizeLast=1;shadow=0;dashed=0;align=center;arcSize=4;whiteSpace=wrap;html=1;" parent="1" vertex="1">
          <mxGeometry x="579.33" y="370" width="133.33" height="70" as="geometry" />
        </mxCell>
        <mxCell id="2-qn9SCY0CSl4VwghT2g-30" value="Login / Registration" style="align=center;strokeColor=none;fillColor=none;spacingLeft=4;fontSize=12;verticalAlign=top;resizable=0;rotatable=0;part=1;html=1;" parent="2-qn9SCY0CSl4VwghT2g-29" vertex="1">
          <mxGeometry y="30" width="133.33" height="40" as="geometry" />
        </mxCell>
        <mxCell id="ZYt9PUyYWpOB_vdmKRMF-25" value="&lt;font style=&quot;font-size: 14px;&quot;&gt;&lt;b style=&quot;&quot;&gt;3. User Portal&lt;/b&gt;&lt;/font&gt;" style="swimlane;childLayout=stackLayout;horizontal=1;startSize=30;horizontalStack=0;rounded=1;fontSize=14;fontStyle=0;strokeWidth=2;resizeParent=0;resizeLast=1;shadow=0;dashed=0;align=center;arcSize=4;whiteSpace=wrap;html=1;" parent="1" vertex="1">
          <mxGeometry x="579.33" y="480" width="133.33" height="90" as="geometry" />
        </mxCell>
        <mxCell id="ZYt9PUyYWpOB_vdmKRMF-26" value="Dashboard &amp;amp; &lt;br&gt;Job Portal" style="align=center;strokeColor=none;fillColor=none;spacingLeft=4;fontSize=12;verticalAlign=top;resizable=0;rotatable=0;part=1;html=1;" parent="ZYt9PUyYWpOB_vdmKRMF-25" vertex="1">
          <mxGeometry y="30" width="133.33" height="60" as="geometry" />
        </mxCell>
        <mxCell id="ZYt9PUyYWpOB_vdmKRMF-55" value="&lt;font style=&quot;font-size: 24px;&quot;&gt;&lt;b&gt;DFD - HBI (Heal By India)&lt;/b&gt;&lt;/font&gt;" style="text;html=1;align=center;verticalAlign=middle;resizable=0;points=[];autosize=1;strokeColor=none;fillColor=none;" parent="1" vertex="1">
          <mxGeometry x="40" y="40" width="310" height="40" as="geometry" />
        </mxCell>
        <mxCell id="VMeWkLT3xw4zWEuHZqp--4" value="" style="endArrow=classic;html=1;rounded=0;edgeStyle=orthogonalEdgeStyle;entryX=1.006;entryY=0.706;entryDx=0;entryDy=0;entryPerimeter=0;exitX=0.005;exitY=0.424;exitDx=0;exitDy=0;exitPerimeter=0;" parent="1" source="2-qn9SCY0CSl4VwghT2g-2" target="2-qn9SCY0CSl4VwghT2g-5" edge="1">
          <mxGeometry relative="1" as="geometry">
            <mxPoint x="416" y="297" as="sourcePoint" />
            <mxPoint x="215" y="297" as="targetPoint" />
          </mxGeometry>
        </mxCell>
        <mxCell id="VMeWkLT3xw4zWEuHZqp--5" value="ACK / NACK" style="edgeLabel;resizable=0;html=1;align=center;verticalAlign=middle;" parent="VMeWkLT3xw4zWEuHZqp--4" connectable="0" vertex="1">
          <mxGeometry relative="1" as="geometry" />
        </mxCell>
        <mxCell id="VMeWkLT3xw4zWEuHZqp--6" value="" style="endArrow=classic;html=1;rounded=0;edgeStyle=orthogonalEdgeStyle;entryX=0.5;entryY=0;entryDx=0;entryDy=0;exitX=1;exitY=0.5;exitDx=0;exitDy=0;" parent="1" source="2-qn9SCY0CSl4VwghT2g-1" target="2-qn9SCY0CSl4VwghT2g-29" edge="1">
          <mxGeometry relative="1" as="geometry">
            <mxPoint x="580" y="289.41" as="sourcePoint" />
            <mxPoint x="750" y="289" as="targetPoint" />
            <Array as="points">
              <mxPoint x="554" y="289" />
              <mxPoint x="646" y="289" />
            </Array>
          </mxGeometry>
        </mxCell>
        <mxCell id="VMeWkLT3xw4zWEuHZqp--7" value="Forward" style="edgeLabel;resizable=0;html=1;align=center;verticalAlign=middle;" parent="VMeWkLT3xw4zWEuHZqp--6" connectable="0" vertex="1">
          <mxGeometry relative="1" as="geometry">
            <mxPoint y="32" as="offset" />
          </mxGeometry>
        </mxCell>
        <mxCell id="VMeWkLT3xw4zWEuHZqp--10" value="External Data Source" style="swimlane;whiteSpace=wrap;html=1;" parent="1" vertex="1">
          <mxGeometry x="836" y="130" width="160" height="200" as="geometry" />
        </mxCell>
        <mxCell id="2-qn9SCY0CSl4VwghT2g-19" value="&lt;font style=&quot;&quot;&gt;&lt;font style=&quot;font-size: 12px;&quot;&gt;Healthcare Professional Registry&lt;/font&gt;&lt;br&gt;&lt;/font&gt;" style="rounded=0;whiteSpace=wrap;html=1;" parent="VMeWkLT3xw4zWEuHZqp--10" vertex="1">
          <mxGeometry x="20" y="40" width="120" height="40" as="geometry" />
        </mxCell>
        <mxCell id="VMeWkLT3xw4zWEuHZqp--11" value="&lt;font style=&quot;&quot;&gt;Elastic Search&lt;br&gt;&lt;/font&gt;" style="rounded=0;whiteSpace=wrap;html=1;" parent="VMeWkLT3xw4zWEuHZqp--10" vertex="1">
          <mxGeometry x="20" y="90" width="120" height="40" as="geometry" />
        </mxCell>
        <mxCell id="W5KI2_hVfU21jzX0xVE0-1" value="&lt;font style=&quot;&quot;&gt;HBI Greivance&lt;br&gt;&lt;/font&gt;" style="rounded=0;whiteSpace=wrap;html=1;" vertex="1" parent="VMeWkLT3xw4zWEuHZqp--10">
          <mxGeometry x="20" y="140" width="120" height="40" as="geometry" />
        </mxCell>
        <mxCell id="W5KI2_hVfU21jzX0xVE0-2" value="" style="endArrow=classic;html=1;rounded=0;edgeStyle=orthogonalEdgeStyle;entryX=0.75;entryY=0;entryDx=0;entryDy=0;exitX=0;exitY=0.5;exitDx=0;exitDy=0;" edge="1" parent="1" source="2-qn9SCY0CSl4VwghT2g-19" target="2-qn9SCY0CSl4VwghT2g-29">
          <mxGeometry relative="1" as="geometry">
            <mxPoint x="630" y="200" as="sourcePoint" />
            <mxPoint x="790" y="200" as="targetPoint" />
          </mxGeometry>
        </mxCell>
        <mxCell id="W5KI2_hVfU21jzX0xVE0-3" value="HP Details" style="edgeLabel;resizable=0;html=1;align=center;verticalAlign=middle;" connectable="0" vertex="1" parent="W5KI2_hVfU21jzX0xVE0-2">
          <mxGeometry relative="1" as="geometry">
            <mxPoint x="71" y="-1" as="offset" />
          </mxGeometry>
        </mxCell>
        <mxCell id="W5KI2_hVfU21jzX0xVE0-6" value="" style="endArrow=classic;html=1;rounded=0;edgeStyle=orthogonalEdgeStyle;entryX=0;entryY=0.5;entryDx=0;entryDy=0;exitX=1.005;exitY=0.026;exitDx=0;exitDy=0;exitPerimeter=0;" edge="1" parent="1" source="2-qn9SCY0CSl4VwghT2g-30" target="VMeWkLT3xw4zWEuHZqp--11">
          <mxGeometry relative="1" as="geometry">
            <mxPoint x="720" y="401" as="sourcePoint" />
            <mxPoint x="850" y="240" as="targetPoint" />
            <Array as="points">
              <mxPoint x="720" y="401" />
              <mxPoint x="810" y="401" />
              <mxPoint x="810" y="240" />
            </Array>
          </mxGeometry>
        </mxCell>
        <mxCell id="W5KI2_hVfU21jzX0xVE0-7" value="Update" style="edgeLabel;resizable=0;html=1;align=center;verticalAlign=middle;" connectable="0" vertex="1" parent="W5KI2_hVfU21jzX0xVE0-6">
          <mxGeometry relative="1" as="geometry" />
        </mxCell>
        <mxCell id="W5KI2_hVfU21jzX0xVE0-10" value="" style="endArrow=classic;html=1;rounded=0;edgeStyle=orthogonalEdgeStyle;entryX=0.452;entryY=-0.019;entryDx=0;entryDy=0;entryPerimeter=0;exitX=0.451;exitY=1.027;exitDx=0;exitDy=0;exitPerimeter=0;" edge="1" parent="1" source="2-qn9SCY0CSl4VwghT2g-30" target="ZYt9PUyYWpOB_vdmKRMF-25">
          <mxGeometry relative="1" as="geometry">
            <mxPoint x="630" y="450" as="sourcePoint" />
            <mxPoint x="790" y="450" as="targetPoint" />
          </mxGeometry>
        </mxCell>
        <mxCell id="W5KI2_hVfU21jzX0xVE0-13" value="" style="endArrow=classic;html=1;rounded=0;edgeStyle=orthogonalEdgeStyle;exitX=1;exitY=0.5;exitDx=0;exitDy=0;entryX=1;entryY=0.5;entryDx=0;entryDy=0;" edge="1" parent="1" source="VMeWkLT3xw4zWEuHZqp--11" target="ZYt9PUyYWpOB_vdmKRMF-26">
          <mxGeometry relative="1" as="geometry">
            <mxPoint x="980" y="240" as="sourcePoint" />
            <mxPoint x="1140" y="240" as="targetPoint" />
            <Array as="points">
              <mxPoint x="1020" y="240" />
              <mxPoint x="1020" y="540" />
            </Array>
          </mxGeometry>
        </mxCell>
        <mxCell id="W5KI2_hVfU21jzX0xVE0-14" value="HP / Recruiter / Employer" style="edgeLabel;resizable=0;html=1;align=center;verticalAlign=middle;" connectable="0" vertex="1" parent="W5KI2_hVfU21jzX0xVE0-13">
          <mxGeometry relative="1" as="geometry">
            <mxPoint x="-150" y="18" as="offset" />
          </mxGeometry>
        </mxCell>
        <mxCell id="W5KI2_hVfU21jzX0xVE0-18" value="" style="endArrow=classic;html=1;rounded=0;edgeStyle=orthogonalEdgeStyle;exitX=1;exitY=0.25;exitDx=0;exitDy=0;entryX=0.75;entryY=0;entryDx=0;entryDy=0;" edge="1" parent="1" source="VMeWkLT3xw4zWEuHZqp--11" target="2-qn9SCY0CSl4VwghT2g-1">
          <mxGeometry relative="1" as="geometry">
            <mxPoint x="980" y="230" as="sourcePoint" />
            <mxPoint x="1100" y="70" as="targetPoint" />
            <Array as="points">
              <mxPoint x="1020" y="230" />
              <mxPoint x="1020" y="50" />
              <mxPoint x="521" y="50" />
            </Array>
          </mxGeometry>
        </mxCell>
        <mxCell id="W5KI2_hVfU21jzX0xVE0-19" value="HP / Recruiter / Employer" style="edgeLabel;resizable=0;html=1;align=center;verticalAlign=middle;" connectable="0" vertex="1" parent="W5KI2_hVfU21jzX0xVE0-18">
          <mxGeometry relative="1" as="geometry" />
        </mxCell>
        <mxCell id="W5KI2_hVfU21jzX0xVE0-22" value="" style="endArrow=classic;startArrow=classic;html=1;rounded=0;edgeStyle=orthogonalEdgeStyle;entryX=0;entryY=0.25;entryDx=0;entryDy=0;exitX=1;exitY=0.5;exitDx=0;exitDy=0;exitPerimeter=0;" edge="1" parent="1" source="2-qn9SCY0CSl4VwghT2g-20" target="2-qn9SCY0CSl4VwghT2g-30">
          <mxGeometry width="50" height="50" relative="1" as="geometry">
            <mxPoint x="503.83" y="475" as="sourcePoint" />
            <mxPoint x="553.83" y="425" as="targetPoint" />
          </mxGeometry>
        </mxCell>
        <mxCell id="W5KI2_hVfU21jzX0xVE0-23" value="" style="endArrow=classic;html=1;rounded=0;edgeStyle=orthogonalEdgeStyle;exitX=0;exitY=0.5;exitDx=0;exitDy=0;exitPerimeter=0;entryX=0;entryY=0.75;entryDx=0;entryDy=0;" edge="1" parent="1" source="W5KI2_hVfU21jzX0xVE0-27" target="2-qn9SCY0CSl4VwghT2g-2">
          <mxGeometry relative="1" as="geometry">
            <mxPoint x="430" y="350" as="sourcePoint" />
            <mxPoint x="400" y="330" as="targetPoint" />
            <Array as="points">
              <mxPoint x="400" y="480" />
              <mxPoint x="400" y="323" />
            </Array>
          </mxGeometry>
        </mxCell>
        <mxCell id="W5KI2_hVfU21jzX0xVE0-26" value="Dashboard Data" style="edgeLabel;html=1;align=center;verticalAlign=middle;resizable=0;points=[];" vertex="1" connectable="0" parent="W5KI2_hVfU21jzX0xVE0-23">
          <mxGeometry x="-0.126" relative="1" as="geometry">
            <mxPoint y="-49" as="offset" />
          </mxGeometry>
        </mxCell>
        <mxCell id="W5KI2_hVfU21jzX0xVE0-27" value="Job Applications" style="shape=cylinder3;whiteSpace=wrap;html=1;boundedLbl=1;backgroundOutline=1;size=15;" vertex="1" parent="1">
          <mxGeometry x="430" y="450" width="90" height="60" as="geometry" />
        </mxCell>
        <mxCell id="W5KI2_hVfU21jzX0xVE0-28" value="" style="endArrow=classic;startArrow=classic;html=1;rounded=0;edgeStyle=orthogonalEdgeStyle;exitX=0;exitY=0.5;exitDx=0;exitDy=0;entryX=0.5;entryY=1;entryDx=0;entryDy=0;entryPerimeter=0;" edge="1" parent="1" source="ZYt9PUyYWpOB_vdmKRMF-26" target="W5KI2_hVfU21jzX0xVE0-27">
          <mxGeometry width="50" height="50" relative="1" as="geometry">
            <mxPoint x="430" y="570" as="sourcePoint" />
            <mxPoint x="480" y="520" as="targetPoint" />
          </mxGeometry>
        </mxCell>
        <mxCell id="W5KI2_hVfU21jzX0xVE0-29" value="&lt;font style=&quot;font-size: 14px;&quot;&gt;Recruiter&lt;br&gt;&lt;/font&gt;" style="rounded=0;whiteSpace=wrap;html=1;" vertex="1" parent="1">
          <mxGeometry x="344" y="630" width="120" height="50" as="geometry" />
        </mxCell>
        <mxCell id="W5KI2_hVfU21jzX0xVE0-30" value="&lt;font style=&quot;font-size: 14px;&quot;&gt;Employer&lt;br&gt;&lt;/font&gt;" style="rounded=0;whiteSpace=wrap;html=1;" vertex="1" parent="1">
          <mxGeometry x="479" y="630" width="120" height="50" as="geometry" />
        </mxCell>
        <mxCell id="W5KI2_hVfU21jzX0xVE0-31" value="&lt;font style=&quot;font-size: 14px;&quot;&gt;Healthcare Professional&lt;br&gt;&lt;/font&gt;" style="rounded=0;whiteSpace=wrap;html=1;" vertex="1" parent="1">
          <mxGeometry x="616" y="630" width="120" height="50" as="geometry" />
        </mxCell>
        <mxCell id="W5KI2_hVfU21jzX0xVE0-32" value="&lt;font style=&quot;font-size: 14px;&quot;&gt;Nodal Users&lt;br&gt;&lt;/font&gt;" style="rounded=0;whiteSpace=wrap;html=1;" vertex="1" parent="1">
          <mxGeometry x="820" y="590" width="120" height="50" as="geometry" />
        </mxCell>
        <mxCell id="W5KI2_hVfU21jzX0xVE0-35" value="" style="endArrow=classic;html=1;rounded=0;edgeStyle=orthogonalEdgeStyle;exitX=0.25;exitY=1;exitDx=0;exitDy=0;entryX=0.5;entryY=0;entryDx=0;entryDy=0;" edge="1" parent="1" source="ZYt9PUyYWpOB_vdmKRMF-26" target="W5KI2_hVfU21jzX0xVE0-29">
          <mxGeometry relative="1" as="geometry">
            <mxPoint x="150" y="560" as="sourcePoint" />
            <mxPoint x="310" y="560" as="targetPoint" />
          </mxGeometry>
        </mxCell>
        <mxCell id="W5KI2_hVfU21jzX0xVE0-38" value="" style="endArrow=classic;html=1;rounded=0;edgeStyle=orthogonalEdgeStyle;exitX=0.38;exitY=1;exitDx=0;exitDy=0;entryX=0.5;entryY=0;entryDx=0;entryDy=0;exitPerimeter=0;" edge="1" parent="1" source="ZYt9PUyYWpOB_vdmKRMF-26" target="W5KI2_hVfU21jzX0xVE0-30">
          <mxGeometry relative="1" as="geometry">
            <mxPoint x="623" y="580" as="sourcePoint" />
            <mxPoint x="414" y="640" as="targetPoint" />
            <Array as="points">
              <mxPoint x="630" y="610" />
              <mxPoint x="539" y="610" />
            </Array>
          </mxGeometry>
        </mxCell>
        <mxCell id="W5KI2_hVfU21jzX0xVE0-40" value="" style="endArrow=classic;html=1;rounded=0;edgeStyle=orthogonalEdgeStyle;exitX=0.5;exitY=1;exitDx=0;exitDy=0;entryX=0.25;entryY=0;entryDx=0;entryDy=0;" edge="1" parent="1" source="ZYt9PUyYWpOB_vdmKRMF-26" target="W5KI2_hVfU21jzX0xVE0-31">
          <mxGeometry relative="1" as="geometry">
            <mxPoint x="640" y="600" as="sourcePoint" />
            <mxPoint x="800" y="600" as="targetPoint" />
          </mxGeometry>
        </mxCell>
        <mxCell id="W5KI2_hVfU21jzX0xVE0-43" value="" style="endArrow=classic;html=1;rounded=0;edgeStyle=orthogonalEdgeStyle;entryX=0;entryY=0.25;entryDx=0;entryDy=0;exitX=0.75;exitY=1;exitDx=0;exitDy=0;" edge="1" parent="1" source="ZYt9PUyYWpOB_vdmKRMF-26" target="W5KI2_hVfU21jzX0xVE0-32">
          <mxGeometry relative="1" as="geometry">
            <mxPoint x="700" y="570" as="sourcePoint" />
            <mxPoint x="840" y="580" as="targetPoint" />
          </mxGeometry>
        </mxCell>
      </root>
    </mxGraphModel>
  </diagram>
</mxfile>
